<svg width="120" height="120" viewBox="0 0 120 120" fill="none" xmlns="http://www.w3.org/2000/svg">
<path fill-rule="evenodd" clip-rule="evenodd" d="M50.6234 18.1445C50.6234 17.6473 50.8209 17.1703 51.1726 16.8187C51.5242 16.4671 52.0011 16.2695 52.4984 16.2695H94.7871L116.248 40.0689V69.9808C116.248 69.9808 116.316 94.6877 109.298 106.483C109.13 106.75 108.897 106.969 108.62 107.122C108.344 107.274 108.034 107.353 107.719 107.353C100.543 107.359 57.9415 107.359 46.0334 107.359C45.7102 107.358 45.3929 107.273 45.112 107.113C44.8311 106.953 44.5961 106.724 44.4298 106.447C44.2636 106.17 44.1716 105.854 44.1628 105.531C44.154 105.208 44.2287 104.888 44.3796 104.603C50.1978 91.9708 50.6234 69.9808 50.6234 69.9808V18.1445Z" fill="#E1E1E1"/>
<path fill-rule="evenodd" clip-rule="evenodd" d="M116.248 69.981C116.248 69.981 116.316 94.6878 109.298 106.483C109.13 106.75 108.897 106.97 108.62 107.122C108.344 107.274 108.034 107.354 107.719 107.353C100.543 107.359 57.9415 107.359 46.0334 107.359C45.7102 107.358 45.3929 107.273 45.112 107.113C44.8311 106.954 44.5961 106.724 44.4298 106.447C44.2636 106.17 44.1716 105.855 44.1628 105.531C44.154 105.208 44.2287 104.889 44.3796 104.603L44.4528 104.442C67.5415 105.527 101.07 101.483 105.486 99.7541C110.203 97.9072 116.155 80.1847 116.247 70.2135L116.248 69.981Z" fill="#C9C9C9"/>
<path fill-rule="evenodd" clip-rule="evenodd" d="M116.248 40.0689C110.556 37.8208 104.53 37.757 98.344 38.7114C98.0608 38.7558 97.7712 38.7346 97.4976 38.6492C97.2239 38.5639 96.9736 38.4167 96.7659 38.2192C96.5582 38.0216 96.3987 37.7789 96.2997 37.5099C96.2008 37.2409 96.165 36.9527 96.1952 36.6677C96.874 29.7414 96.1896 22.9652 94.7871 16.2695C103.858 23.0045 111.021 30.9302 116.248 40.0689Z" fill="#A1A1A1"/>
<path fill-rule="evenodd" clip-rule="evenodd" d="M50.6238 22.6274C55.8156 23.2693 60.6433 25.6303 64.3375 29.3343C72.0306 37.0274 73.2794 48.7387 68.0856 57.7368L71.1737 67.5299C71.2487 67.7657 71.2573 68.0176 71.1988 68.258C71.1403 68.4984 71.0168 68.7181 70.8419 68.8931C70.7534 68.9796 70.6659 69.0671 70.5794 69.1556C70.4149 69.3192 70.2088 69.4347 69.9834 69.4895C69.758 69.5444 69.5219 69.5365 69.3006 69.4668L59.4588 66.3637C56.7325 67.9361 53.7176 68.9437 50.5938 69.3262C50.6162 68.7056 50.6238 68.3643 50.6238 68.3643V22.6274Z" fill="#C9C9C9"/>
<path fill-rule="evenodd" clip-rule="evenodd" d="M57.0868 64.0654C48.4843 69.0323 37.2868 67.8379 29.9312 60.4823C21.1505 51.7017 21.1505 37.4442 29.9312 28.6635C38.7118 19.881 52.9693 19.881 61.7518 28.6635C69.1055 36.0173 70.2999 47.2148 65.3349 55.8173L68.2862 65.181C68.3577 65.4061 68.366 65.6466 68.3101 65.8761C68.2543 66.1056 68.1363 66.3153 67.9693 66.4823L67.718 66.7335C67.5611 66.8904 67.3642 67.0013 67.1487 67.0542C66.9332 67.1071 66.7073 67.0999 66.4955 67.0335L57.0868 64.0654Z" fill="#E6E6E6"/>
<path fill-rule="evenodd" clip-rule="evenodd" d="M41.8742 37.8418C41.833 36.0531 42.5024 34.75 43.5392 33.985C45.1667 32.785 47.5967 32.8356 48.9167 34.3225C49.4849 34.9618 49.813 35.8656 49.8224 37.0093C49.8449 39.7506 48.5567 41.3537 47.2986 43.015C45.6036 45.2518 43.9105 47.5506 43.7005 51.3887C43.6761 51.8837 43.8486 52.3682 44.1804 52.7363C44.5122 53.1045 44.9762 53.3263 45.471 53.3533C45.9659 53.3803 46.4513 53.2103 46.8211 52.8805C47.191 52.5506 47.4153 52.0878 47.4449 51.5931C47.6042 48.6775 48.9992 46.9787 50.2874 45.28C52.0124 43.0056 53.6024 40.7368 53.5724 36.9793C53.5536 34.7706 52.8167 33.0662 51.7217 31.8325C49.1624 28.9506 44.4655 28.6412 41.3136 30.9662C39.4236 32.3612 38.0492 34.6712 38.1261 37.93C38.148 38.4199 38.361 38.8817 38.7194 39.2165C39.0778 39.5512 39.553 39.7322 40.0433 39.7207C40.5336 39.7092 40.9998 39.506 41.3421 39.1548C41.6844 38.8036 41.8754 38.3322 41.8742 37.8418Z" fill="#A1A1A1"/>
<path d="M45.3961 60.3269C46.6698 60.3269 47.7023 59.2943 47.7023 58.0206C47.7023 56.7469 46.6698 55.7144 45.3961 55.7144C44.1224 55.7144 43.0898 56.7469 43.0898 58.0206C43.0898 59.2943 44.1224 60.3269 45.3961 60.3269Z" fill="#A1A1A1"/>
<path fill-rule="evenodd" clip-rule="evenodd" d="M18.6823 21.8615L23.8274 28.3815C24.0403 28.6486 24.3494 28.8199 24.6873 28.858C25.0252 28.8961 25.3643 28.7979 25.6305 28.5849C25.8967 28.3719 26.0684 28.0613 26.108 27.7212C26.1476 27.381 26.0518 27.0389 25.8418 26.7697L20.6966 20.2496C20.4837 19.9826 20.1746 19.8113 19.8367 19.7732C19.4988 19.7351 19.1597 19.8333 18.8935 20.0463C18.6273 20.2593 18.4556 20.5698 18.416 20.91C18.3765 21.2501 18.4722 21.5922 18.6823 21.8615ZM4.89964 25.1047L18.344 32.879C18.4906 32.9694 18.6539 33.0293 18.8239 33.0551C18.994 33.0809 19.1675 33.0721 19.3341 33.0292C19.5007 32.9863 19.6571 32.9102 19.794 32.8053C19.931 32.7005 20.0456 32.569 20.1312 32.4187C20.2168 32.2685 20.2716 32.1024 20.2924 31.9305C20.3132 31.7585 20.2995 31.5841 20.2522 31.4175C20.2049 31.2509 20.1249 31.0956 20.017 30.9607C19.9091 30.8258 19.7754 30.7141 19.6238 30.6322L6.18078 22.8579C6.03418 22.7696 5.87158 22.7116 5.70248 22.6873C5.53338 22.663 5.36116 22.6728 5.19588 22.7163C5.0306 22.7597 4.87557 22.8359 4.73983 22.9403C4.60409 23.0448 4.49036 23.1754 4.40528 23.3246C4.3202 23.4738 4.26548 23.6386 4.2443 23.8093C4.22312 23.9801 4.23592 24.1534 4.28193 24.3191C4.32795 24.4848 4.40628 24.6396 4.51233 24.7745C4.61839 24.9094 4.75005 25.0216 4.89964 25.1047ZM6.8265 39.5298H15.8305C16.1717 39.5298 16.4989 39.3933 16.7401 39.1503C16.9813 38.9073 17.1168 38.5778 17.1168 38.2341C17.1168 37.8905 16.9813 37.5609 16.7401 37.3179C16.4989 37.0749 16.1717 36.9384 15.8305 36.9384H6.8265C6.48536 36.9384 6.15818 37.0749 5.91696 37.3179C5.67573 37.5609 5.54021 37.8905 5.54021 38.2341C5.54021 38.5778 5.67573 38.9073 5.91696 39.1503C6.15818 39.3933 6.48536 39.5298 6.8265 39.5298Z" fill="#A1A1A1"/>
</svg>
